<mxfile host="65bd71144e">
    <diagram id="prtHgNgQTEPvFCAcTncT" name="Page-1">
        <mxGraphModel dx="50" dy="70" grid="1" gridSize="10" guides="1" tooltips="1" connect="1" arrows="1" fold="1" page="1" pageScale="1" pageWidth="827" pageHeight="1169" background="#FFFFFF" math="0" shadow="0">
            <root>
                <mxCell id="0"/>
                <mxCell id="1" parent="0"/>
                <mxCell id="G9pkaAnPrwhdVn_8INE9-42" value="" style="html=1;align=center;verticalAlign=top;rounded=1;absoluteArcSize=1;arcSize=20;dashed=1;strokeWidth=1;fontSize=12;fillColor=none;" parent="1" vertex="1">
                    <mxGeometry x="210" y="320" width="450" height="130" as="geometry"/>
                </mxCell>
                <mxCell id="G9pkaAnPrwhdVn_8INE9-20" style="edgeStyle=orthogonalEdgeStyle;rounded=0;orthogonalLoop=1;jettySize=auto;html=1;exitX=1;exitY=0.5;exitDx=0;exitDy=0;entryX=0;entryY=0.5;entryDx=0;entryDy=0;" parent="1" source="G9pkaAnPrwhdVn_8INE9-1" target="G9pkaAnPrwhdVn_8INE9-4" edge="1">
                    <mxGeometry relative="1" as="geometry"/>
                </mxCell>
                <mxCell id="G9pkaAnPrwhdVn_8INE9-1" value="" style="ellipse;fillColor=#000000;strokeColor=none;" parent="1" vertex="1">
                    <mxGeometry x="160" y="165" width="30" height="30" as="geometry"/>
                </mxCell>
                <mxCell id="G9pkaAnPrwhdVn_8INE9-7" value="" style="swimlane;childLayout=stackLayout;resizeParent=1;resizeParentMax=0;startSize=20;movable=1;movableLabel=1;fillColor=none;strokeColor=none;" parent="1" vertex="1">
                    <mxGeometry x="196" y="90" width="480" height="480" as="geometry"/>
                </mxCell>
                <mxCell id="G9pkaAnPrwhdVn_8INE9-8" value="Supervisore" style="swimlane;startSize=20;" parent="G9pkaAnPrwhdVn_8INE9-7" vertex="1">
                    <mxGeometry y="20" width="210" height="460" as="geometry"/>
                </mxCell>
                <mxCell id="G9pkaAnPrwhdVn_8INE9-4" value="Seleziona data" style="html=1;align=center;verticalAlign=top;rounded=1;absoluteArcSize=1;arcSize=10;dashed=0;" parent="G9pkaAnPrwhdVn_8INE9-8" vertex="1">
                    <mxGeometry x="35" y="50" width="140" height="40" as="geometry"/>
                </mxCell>
                <mxCell id="G9pkaAnPrwhdVn_8INE9-6" value="Seleziona tecnico" style="html=1;align=center;verticalAlign=top;rounded=1;absoluteArcSize=1;arcSize=10;dashed=0;" parent="G9pkaAnPrwhdVn_8INE9-8" vertex="1">
                    <mxGeometry x="35" y="110" width="140" height="40" as="geometry"/>
                </mxCell>
                <mxCell id="G9pkaAnPrwhdVn_8INE9-40" value="Invia assegnazione" style="html=1;shape=mxgraph.infographic.ribbonSimple;notch1=0;notch2=20;align=center;verticalAlign=middle;fontSize=12;fontStyle=0;fillColor=#FFFFFF;strokeWidth=1;" parent="G9pkaAnPrwhdVn_8INE9-8" vertex="1">
                    <mxGeometry x="35" y="220" width="140" height="43" as="geometry"/>
                </mxCell>
                <mxCell id="G9pkaAnPrwhdVn_8INE9-9" value="Ardeeno DataLayer" style="swimlane;startSize=20;" parent="G9pkaAnPrwhdVn_8INE9-7" vertex="1">
                    <mxGeometry x="210" y="20" width="270" height="460" as="geometry"/>
                </mxCell>
                <mxCell id="G9pkaAnPrwhdVn_8INE9-5" value="Verifica disponibilità&lt;br&gt;data" style="html=1;align=center;verticalAlign=top;rounded=1;absoluteArcSize=1;arcSize=10;dashed=0;whiteSpace=wrap;" parent="G9pkaAnPrwhdVn_8INE9-9" vertex="1">
                    <mxGeometry x="50" y="50" width="140" height="40" as="geometry"/>
                </mxCell>
                <mxCell id="G9pkaAnPrwhdVn_8INE9-14" value="Verifica disponibilità e prenota Tecnico" style="html=1;align=center;verticalAlign=top;rounded=1;absoluteArcSize=1;arcSize=10;dashed=0;whiteSpace=wrap;" parent="G9pkaAnPrwhdVn_8INE9-9" vertex="1">
                    <mxGeometry x="50" y="160" width="140" height="40" as="geometry"/>
                </mxCell>
                <mxCell id="G9pkaAnPrwhdVn_8INE9-32" value="[non disp.]" style="edgeStyle=orthogonalEdgeStyle;rounded=0;orthogonalLoop=1;jettySize=auto;html=1;exitX=1;exitY=0.5;exitDx=0;exitDy=0;entryX=1;entryY=0.5;entryDx=0;entryDy=0;" parent="G9pkaAnPrwhdVn_8INE9-9" source="G9pkaAnPrwhdVn_8INE9-14" target="G9pkaAnPrwhdVn_8INE9-5" edge="1">
                    <mxGeometry relative="1" as="geometry">
                        <mxPoint x="120" y="30" as="targetPoint"/>
                        <Array as="points">
                            <mxPoint x="204" y="180"/>
                            <mxPoint x="204" y="70"/>
                        </Array>
                    </mxGeometry>
                </mxCell>
                <mxCell id="G9pkaAnPrwhdVn_8INE9-31" value="Rimuovi Prenotazione" style="html=1;align=center;verticalAlign=top;rounded=1;absoluteArcSize=1;arcSize=10;dashed=0;whiteSpace=wrap;" parent="G9pkaAnPrwhdVn_8INE9-9" vertex="1">
                    <mxGeometry x="8" y="400" width="140" height="40" as="geometry"/>
                </mxCell>
                <mxCell id="G9pkaAnPrwhdVn_8INE9-41" value="Assegna&lt;br&gt;Tecnico" style="html=1;shape=mxgraph.infographic.ribbonSimple;notch1=20;notch2=0;align=center;verticalAlign=middle;fontSize=12;fontStyle=0;flipH=1;fillColor=#FFFFFF;strokeWidth=1;whiteSpace=wrap;" parent="G9pkaAnPrwhdVn_8INE9-9" vertex="1">
                    <mxGeometry x="104" y="260" width="130" height="40" as="geometry"/>
                </mxCell>
                <mxCell id="G9pkaAnPrwhdVn_8INE9-43" value="" style="shape=collate;whiteSpace=wrap;html=1;strokeWidth=1;fontSize=12;fillColor=none;" parent="G9pkaAnPrwhdVn_8INE9-9" vertex="1">
                    <mxGeometry x="63" y="300" width="30" height="30" as="geometry"/>
                </mxCell>
                <mxCell id="G9pkaAnPrwhdVn_8INE9-45" value="" style="shape=mxgraph.lean_mapping.electronic_info_flow_edge;html=1;rounded=0;fontSize=12;entryX=0.5;entryY=0;entryDx=0;entryDy=0;exitX=0.5;exitY=1;exitDx=0;exitDy=0;" parent="G9pkaAnPrwhdVn_8INE9-9" source="G9pkaAnPrwhdVn_8INE9-43" target="G9pkaAnPrwhdVn_8INE9-31" edge="1">
                    <mxGeometry width="160" relative="1" as="geometry">
                        <mxPoint x="74" y="330" as="sourcePoint"/>
                        <mxPoint x="234" y="330" as="targetPoint"/>
                    </mxGeometry>
                </mxCell>
                <mxCell id="G9pkaAnPrwhdVn_8INE9-46" value="[timer&amp;gt;15']" style="edgeLabel;html=1;align=center;verticalAlign=middle;resizable=0;points=[];fontSize=12;" parent="G9pkaAnPrwhdVn_8INE9-45" vertex="1" connectable="0">
                    <mxGeometry x="-0.4714" y="2" relative="1" as="geometry">
                        <mxPoint as="offset"/>
                    </mxGeometry>
                </mxCell>
                <mxCell id="G9pkaAnPrwhdVn_8INE9-15" style="edgeStyle=orthogonalEdgeStyle;rounded=0;orthogonalLoop=1;jettySize=auto;html=1;exitX=1;exitY=0.5;exitDx=0;exitDy=0;entryX=0;entryY=0.5;entryDx=0;entryDy=0;" parent="G9pkaAnPrwhdVn_8INE9-7" source="G9pkaAnPrwhdVn_8INE9-4" target="G9pkaAnPrwhdVn_8INE9-5" edge="1">
                    <mxGeometry relative="1" as="geometry"/>
                </mxCell>
                <mxCell id="G9pkaAnPrwhdVn_8INE9-16" value="[tecnici non disp.]" style="edgeStyle=orthogonalEdgeStyle;rounded=0;orthogonalLoop=1;jettySize=auto;html=1;exitX=0.5;exitY=0;exitDx=0;exitDy=0;entryX=0.5;entryY=0;entryDx=0;entryDy=0;" parent="G9pkaAnPrwhdVn_8INE9-7" source="G9pkaAnPrwhdVn_8INE9-5" target="G9pkaAnPrwhdVn_8INE9-4" edge="1">
                    <mxGeometry relative="1" as="geometry"/>
                </mxCell>
                <mxCell id="G9pkaAnPrwhdVn_8INE9-17" value="[tecnici disp.]" style="edgeStyle=orthogonalEdgeStyle;rounded=0;orthogonalLoop=1;jettySize=auto;html=1;exitX=0.5;exitY=1;exitDx=0;exitDy=0;entryX=1;entryY=0.5;entryDx=0;entryDy=0;" parent="G9pkaAnPrwhdVn_8INE9-7" source="G9pkaAnPrwhdVn_8INE9-5" target="G9pkaAnPrwhdVn_8INE9-6" edge="1">
                    <mxGeometry relative="1" as="geometry"/>
                </mxCell>
                <mxCell id="G9pkaAnPrwhdVn_8INE9-18" style="edgeStyle=orthogonalEdgeStyle;rounded=0;orthogonalLoop=1;jettySize=auto;html=1;exitX=0.5;exitY=1;exitDx=0;exitDy=0;entryX=0;entryY=0.5;entryDx=0;entryDy=0;" parent="G9pkaAnPrwhdVn_8INE9-7" source="G9pkaAnPrwhdVn_8INE9-6" target="G9pkaAnPrwhdVn_8INE9-14" edge="1">
                    <mxGeometry relative="1" as="geometry"/>
                </mxCell>
                <mxCell id="G9pkaAnPrwhdVn_8INE9-24" value="[disp.]" style="edgeStyle=orthogonalEdgeStyle;rounded=0;orthogonalLoop=1;jettySize=auto;html=1;exitX=0.5;exitY=1;exitDx=0;exitDy=0;entryX=1;entryY=0.5;entryDx=0;entryDy=0;entryPerimeter=0;" parent="G9pkaAnPrwhdVn_8INE9-7" source="G9pkaAnPrwhdVn_8INE9-14" target="G9pkaAnPrwhdVn_8INE9-40" edge="1">
                    <mxGeometry relative="1" as="geometry">
                        <mxPoint x="330" y="260" as="targetPoint"/>
                    </mxGeometry>
                </mxCell>
                <mxCell id="G9pkaAnPrwhdVn_8INE9-22" value="" style="ellipse;html=1;shape=endState;fillColor=strokeColor;" parent="1" vertex="1">
                    <mxGeometry x="286" y="585" width="30" height="30" as="geometry"/>
                </mxCell>
                <mxCell id="G9pkaAnPrwhdVn_8INE9-38" style="edgeStyle=orthogonalEdgeStyle;rounded=0;orthogonalLoop=1;jettySize=auto;html=1;exitX=0.5;exitY=1;exitDx=0;exitDy=0;entryX=1;entryY=0.5;entryDx=0;entryDy=0;" parent="1" source="G9pkaAnPrwhdVn_8INE9-31" target="G9pkaAnPrwhdVn_8INE9-22" edge="1">
                    <mxGeometry relative="1" as="geometry">
                        <mxPoint x="380" y="200" as="targetPoint"/>
                    </mxGeometry>
                </mxCell>
                <mxCell id="G9pkaAnPrwhdVn_8INE9-39" style="edgeStyle=orthogonalEdgeStyle;rounded=0;orthogonalLoop=1;jettySize=auto;html=1;exitX=0;exitY=0;exitDx=65;exitDy=40;exitPerimeter=0;entryX=0;entryY=0.5;entryDx=0;entryDy=0;" parent="1" source="G9pkaAnPrwhdVn_8INE9-41" target="6" edge="1">
                    <mxGeometry relative="1" as="geometry">
                        <mxPoint x="480" y="600" as="targetPoint"/>
                        <mxPoint x="610" y="490" as="sourcePoint"/>
                        <Array as="points">
                            <mxPoint x="575" y="500"/>
                        </Array>
                    </mxGeometry>
                </mxCell>
                <mxCell id="2" value="Gmail" style="swimlane;startSize=20;" vertex="1" parent="1">
                    <mxGeometry x="676" y="110" width="164" height="460" as="geometry"/>
                </mxCell>
                <mxCell id="6" value="Invia email di notifica" style="html=1;align=center;verticalAlign=top;rounded=1;absoluteArcSize=1;arcSize=10;dashed=0;whiteSpace=wrap;" vertex="1" parent="2">
                    <mxGeometry x="11" y="370" width="140" height="40" as="geometry"/>
                </mxCell>
                <mxCell id="11" style="edgeStyle=none;html=1;exitX=0.5;exitY=1;exitDx=0;exitDy=0;rounded=0;endArrow=none;endFill=0;" edge="1" parent="1" source="6">
                    <mxGeometry relative="1" as="geometry">
                        <mxPoint x="484" y="600" as="targetPoint"/>
                        <Array as="points">
                            <mxPoint x="757" y="600"/>
                        </Array>
                    </mxGeometry>
                </mxCell>
            </root>
        </mxGraphModel>
    </diagram>
</mxfile>